# xmcd CD database file
#
# Track frame offsets:
#	150
#	25830
#	46229
#	65472
#	71954
#	82296
#	103190
#	108863
#	138154
#	164267
#	178998
#	205290
#	211004
#	216088
#	218611
#	234795
#	244438
#	253438
#	267728
#	281710
#	298153
#	315125
#	328943
#
# Disc length: 4588 seconds
#
# Revision: 0
# Processed by: cddbd v1.5.2PL0 Copyright (c) Steve Scherf et al.
# Submitted via: CDex 1.70beta2
#
DISCID=7011ea17
DTITLE=Bilie Holiday - on Verve 1945 - 1959
DYEAR=1900
DGENRE=Jazz
TTITLE0=Billie Holiday - I Get A Kick Out Of You
TTITLE1=Billie Holiday - Everything I Have Is Yours
TTITLE2=Billie Holiday - Isn't This A Lovely Day
TTITLE3=Billie Holiday - Discussion - Misery
TTITLE4=Billie Holiday - Israel
TTITLE5=Billie Holiday - Misery
TTITLE6=Billie Holiday - Discussion
TTITLE7=Billie Holiday - I Must Have That Man!
TTITLE8=Billie Holiday - Strange Fruit
TTITLE9=Billie Holiday - God Bless The Child
TTITLE10=Billie Holiday - Discussion - God Bless The Chil
TTITLE11=Billie Holiday - Discussion
TTITLE12=Billie Holiday - God Bless The Child
TTITLE13=Billie Holiday - Discussion
TTITLE14=Billie Holiday - God Bless The Child
TTITLE15=Billie Holiday - One Never Knows, Does One
TTITLE16=Billie Holiday - Discussion
TTITLE17=Billie Holiday - Travelin' Light
TTITLE18=Billie Holiday - I Must Have That Man!
TTITLE19=Billie Holiday - Some Other Springs
TTITLE20=Billie Holiday - Lady Sings The Blues
TTITLE21=Billie Holiday - Strange Fruit
TTITLE22=Billie Holiday - No Good Man
EXTD=
EXTT0=
EXTT1=
EXTT2=
EXTT3=
EXTT4=
EXTT5=
EXTT6=
EXTT7=
EXTT8=
EXTT9=
EXTT10=
EXTT11=
EXTT12=
EXTT13=
EXTT14=
EXTT15=
EXTT16=
EXTT17=
EXTT18=
EXTT19=
EXTT20=
EXTT21=
EXTT22=
PLAYORDER=
